# xmcd CD database file
#
# Track frame offsets:
#	150
#	12375
#	31267
#	46492
#	61955
#	86392
#	105265
#	119035
#	141867
#	155087
#	163150
#	183665
#	197955
#
# Disc length: 2820 seconds
#
# Revision: 0
# Processed by: cddbd v1.5.2PL0 Copyright (c) Steve Scherf et al.
# Submitted via: CDex 1.51
#
DISCID=b50b020d
DTITLE=Jiro Yoshida - Guitar and the Moon
DYEAR=1999
DGENRE=Jazz
TTITLE0=Get out and get under the moon
TTITLE1=On the street where you live
TTITLE2=I just wanna stop
TTITLE3=Lover come back to me
TTITLE4=Bewitched
TTITLE5=If you don't know me by now
TTITLE6=Tenderly
TTITLE7=Cry me a river
TTITLE8=Beyond the sea
TTITLE9=Danny boy
TTITLE10=Dream
TTITLE11=Isn't it romantic?
TTITLE12=Moon river
EXTD=YEAR: 1999
EXTT0=
EXTT1=
EXTT2=
EXTT3=
EXTT4=
EXTT5=
EXTT6=
EXTT7=
EXTT8=
EXTT9=
EXTT10=
EXTT11=
EXTT12=
PLAYORDER=
